<?xml version="1.0" standalone="no"?>
<!DOCTYPE svg PUBLIC "-//W3C//DTD SVG 20010904//EN"
 "http://www.w3.org/TR/2001/REC-SVG-20010904/DTD/svg10.dtd">
<svg version="1.0" xmlns="http://www.w3.org/2000/svg"
 width="289.000000pt" height="288.000000pt" viewBox="0 0 289.000000 288.000000"
 preserveAspectRatio="xMidYMid meet">

<g transform="translate(0.000000,288.000000) scale(0.100000,-0.100000)"
fill="#000000" stroke="none">
<path d="M1223 1913 c119 -2 315 -2 435 0 119 1 21 2 -218 2 -239 0 -337 -1
-217 -2z"/>
<path d="M979 1893 c-13 -16 -12 -17 4 -4 9 7 17 15 17 17 0 8 -8 3 -21 -13z"/>
<path d="M1880 1906 c0 -2 8 -10 18 -17 15 -13 16 -12 3 4 -13 16 -21 21 -21
13z"/>
<path d="M965 1440 c0 -239 1 -337 2 -218 2 120 2 316 0 435 -1 120 -2 22 -2
-217z"/>
<path d="M1915 1440 c0 -239 1 -337 2 -218 2 120 2 316 0 435 -1 120 -2 22 -2
-217z"/>
<path d="M1645 1703 c96 -50 155 -148 155 -258 -1 -113 -54 -201 -154 -252
-54 -28 -134 -36 -206 -21 -30 7 -32 6 -15 -5 12 -7 56 -12 110 -12 108 0 149
18 219 95 101 113 101 267 0 380 -41 45 -108 91 -131 90 -4 -1 6 -8 22 -17z"/>
<path d="M1241 1516 c-9 -11 -6 -13 14 -13 20 0 23 2 14 13 -6 8 -13 14 -14
14 -1 0 -8 -6 -14 -14z"/>
<path d="M1068 1514 c-12 -11 -10 -132 2 -139 6 -4 10 8 10 28 0 22 7 41 21
53 29 26 53 8 57 -45 4 -53 22 -54 22 -1 0 46 -31 86 -58 75 -9 -4 -22 -9 -29
-12 -7 -3 -13 6 -15 22 -2 15 -6 23 -10 19z"/>
<path d="M1338 1514 c-12 -11 -10 -132 2 -139 6 -3 10 0 10 8 0 20 42 55 47
40 3 -7 13 -23 23 -35 24 -28 26 -7 4 28 -16 23 -15 26 1 44 29 32 12 32 -26
0 -19 -16 -37 -29 -41 -30 -4 0 -8 21 -10 46 -2 25 -6 42 -10 38z"/>
<path d="M1675 1510 c3 -5 10 -10 16 -10 5 0 9 5 9 10 0 6 -7 10 -16 10 -8 0
-12 -4 -9 -10z"/>
<path d="M1233 1480 c-26 -11 -41 -56 -26 -79 6 -9 22 -20 36 -25 55 -20 93
64 45 98 -25 18 -25 18 -55 6z m45 -22 c17 -17 15 -58 -4 -65 -36 -13 -68 33
-44 62 15 18 32 19 48 3z"/>
<path d="M1522 1450 l-20 -45 -16 38 c-9 20 -21 37 -26 37 -11 0 -1 -30 26
-83 l17 -32 20 44 19 44 20 -44 20 -44 24 48 c14 27 24 56 22 65 -3 11 -11 1
-24 -28 l-21 -45 -20 45 -21 45 -20 -45z"/>
<path d="M1662 1474 c-45 -32 -11 -113 44 -102 31 6 25 23 -8 23 -17 0 -33 6
-35 13 -3 8 9 12 41 12 39 0 46 3 46 19 0 20 -34 51 -55 51 -6 0 -21 -7 -33
-16z m66 -21 c2 -9 -8 -13 -33 -13 -33 0 -36 2 -25 15 15 18 51 16 58 -2z"/>
<path d="M970 996 c0 -2 8 -10 18 -17 15 -13 16 -12 3 4 -13 16 -21 21 -21 13z"/>
<path d="M1889 983 c-13 -16 -12 -17 4 -4 16 13 21 21 13 21 -2 0 -10 -8 -17
-17z"/>
<path d="M1223 963 c119 -2 315 -2 435 0 119 1 21 2 -218 2 -239 0 -337 -1
-217 -2z"/>
</g>
</svg>
