<?xml version="1.0" standalone="no"?>
<!DOCTYPE svg PUBLIC "-//W3C//DTD SVG 20010904//EN"
 "http://www.w3.org/TR/2001/REC-SVG-20010904/DTD/svg10.dtd">
<svg version="1.0" xmlns="http://www.w3.org/2000/svg"
 width="1135.000000pt" height="1134.000000pt" viewBox="0 0 1135.000000 1134.000000"
 preserveAspectRatio="xMidYMid meet">

<g transform="translate(0.000000,1134.000000) scale(0.100000,-0.100000)"
fill="#000000" stroke="none">
<path d="M3763 7786 c-81 -26 -155 -96 -196 -183 l-22 -48 -3 -1850 c-2 -1367
0 -1864 8 -1905 23 -108 102 -200 204 -239 l57 -21 1864 0 1864 0 57 21 c102
39 181 131 204 239 8 41 10 538 8 1905 l-3 1850 -26 55 c-31 66 -94 131 -157
162 l-47 23 -1885 2 c-1538 1 -1893 -1 -1927 -11z m3766 -16 c104 -20 183 -79
225 -169 l21 -46 0 -1885 0 -1885 -21 -46 c-28 -60 -85 -116 -148 -145 l-51
-24 -1880 0 -1880 0 -51 24 c-63 29 -120 85 -148 145 l-21 46 -3 1865 c-2
2060 -7 1922 61 2011 38 49 114 96 179 108 63 13 3653 13 3717 1z"/>
<path d="M6135 6964 c186 -22 322 -62 469 -137 348 -177 586 -492 667 -880 30
-142 30 -352 0 -494 -104 -500 -470 -875 -965 -991 -95 -22 -135 -26 -271 -26
-113 0 -186 5 -248 17 -178 36 -366 118 -509 224 -64 47 -67 48 -28 12 64 -58
213 -156 295 -194 168 -77 325 -114 510 -122 577 -24 1104 343 1284 894 82
251 82 555 0 804 -84 260 -263 506 -479 658 -200 141 -503 245 -700 239 -30 0
-41 -3 -25 -4z"/>
</g>
</svg>
